<svg width="460" height="474" viewBox="0 0 460 474" fill="none" xmlns="http://www.w3.org/2000/svg">
<path d="M260.913 326.928L293.17 300.119C293.17 300.119 293.51 296.666 292.826 295.652C288.686 289.511 284.995 283.075 281.863 276.352C276.433 264.696 268.434 252.098 258.279 239.879C248.124 227.66 237.202 217.491 226.736 210.021C216.399 202.643 207.163 193.835 199.046 184.069L173.796 153.688L138.788 182.783L164.038 213.164C172.154 222.93 179.125 233.622 184.487 245.134C189.917 256.79 197.916 269.388 208.071 281.607C218.226 293.826 229.148 303.994 239.614 311.465C245.651 315.773 251.303 320.58 256.583 325.773C257.456 326.63 260.913 326.928 260.913 326.928Z" fill="black"/>
<path d="M269.65 305.309L276.708 313.8L293.17 300.119C293.17 300.119 293.51 296.665 292.826 295.652C288.686 289.511 284.995 283.075 281.863 276.352C276.433 264.696 268.434 252.098 258.279 239.879C248.124 227.66 237.202 217.491 226.736 210.021C216.399 202.643 207.163 193.835 199.046 184.069L173.796 153.688L155.958 168.512L166.383 181.055C174.5 190.822 183.736 199.63 194.073 207.008C204.539 214.478 215.461 224.647 225.616 236.866C235.771 249.085 243.77 261.683 249.2 273.338C254.563 284.85 261.533 295.542 269.65 305.309Z" fill="#8E6047"/>
<path d="M45.606 170.915L79.8368 142.466L108.286 176.697L74.0551 205.146L45.606 170.915Z" fill="#DAE4EA"/>
<path d="M63.6797 155.894L79.0838 174.429C81.9636 177.894 81.4897 183.038 78.024 185.918L66.2248 195.724L74.0551 205.146L108.286 176.697L79.8368 142.466L63.6797 155.894Z" fill="#B9C1CB"/>
<path d="M72.0449 218.733L54.9315 232.956C52.3634 235.09 48.5506 234.739 46.4162 232.171L13.9814 193.144C11.847 190.576 12.1987 186.763 14.7668 184.629L31.8802 170.406C39.9062 163.735 51.8202 164.834 58.4905 172.86L72.8893 190.185L72.7108 197.852L78.6472 201.33C79.6139 207.666 77.333 214.338 72.0449 218.733Z" fill="#DAE4EA"/>
<path d="M32.3642 170.023C32.8915 170.526 33.3978 171.06 33.8752 171.634L56.1646 198.454C59.3662 202.306 58.8387 208.025 54.9864 211.226L39.6216 223.996L46.4151 232.17C48.5495 234.739 52.3623 235.09 54.9304 232.956L72.0438 218.733C80.0698 212.063 81.1688 200.149 74.4984 192.123L58.4899 172.861C51.9525 164.994 40.3786 163.787 32.3642 170.023Z" fill="#B9C1CB"/>
<path d="M169.453 100.989C165.415 96.1298 166.08 88.9162 170.939 84.8779L181.515 76.0886C200.802 60.0593 227.616 59.0906 247.705 71.8495C249.112 72.7437 250.93 72.6494 252.212 71.5836L260.776 64.4664C262.395 63.1204 262.617 60.7159 261.271 59.0964L257.814 54.9367C232.598 24.5958 187.56 20.4415 157.22 45.6577L63.469 123.573C59.6167 126.775 59.0892 132.494 62.2908 136.346L117.056 202.242C120.258 206.094 125.977 206.622 129.829 203.42L196.641 147.893C200.493 144.692 201.02 138.972 197.819 135.12L169.453 100.989L169.453 100.989Z" fill="#DAE4EA"/>
<path d="M158.011 73.9205L147.435 82.7098C142.576 86.7481 141.911 93.9617 145.949 98.8207L174.263 132.888C177.493 136.775 176.961 142.546 173.074 145.777L112.186 196.381L117.056 202.242C120.258 206.094 125.977 206.621 129.829 203.42L196.641 147.893C200.493 144.691 201.021 138.972 197.819 135.12L169.453 100.989C165.415 96.1302 166.08 88.9167 170.939 84.8783L181.515 76.089C190.189 68.8795 200.388 64.7266 210.811 63.4891C193.2 57.999 173.255 61.2508 158.011 73.9205Z" fill="#B9C1CB"/>
<path d="M197.597 29.3528C211.494 33.0066 224.425 40.8752 234.31 52.7686L237.767 56.9283C239.113 58.5478 238.891 60.9523 237.272 62.2983L233.526 65.411C238.479 66.8753 243.257 69.0239 247.705 71.8495C249.112 72.7436 250.93 72.6494 252.212 71.5836L260.776 64.4664C262.395 63.1204 262.617 60.7159 261.271 59.0964L257.814 54.9367C242.483 36.4898 219.824 27.7249 197.597 29.3528Z" fill="#B9C1CB"/>
<path d="M136.866 146.696C124.146 157.267 109.759 159.47 103.401 151.819C97.0425 144.168 101.84 130.427 114.56 119.856C127.279 109.284 141.666 107.082 148.025 114.733C154.383 122.384 149.586 136.125 136.866 146.696ZM121.872 128.654C113.151 135.902 111.244 143.357 112.2 144.507C113.156 145.657 120.833 145.145 129.554 137.897C138.275 130.65 140.183 123.195 139.227 122.045C138.269 120.894 130.593 121.406 121.872 128.654Z" fill="#F6F9F9"/>
<path d="M292.826 295.652L256.584 325.772C260.347 329.469 263.928 333.354 267.305 337.417L286.573 360.601C294.677 370.352 301.534 381.074 306.984 392.522L312.59 404.294C315.26 409.902 322.499 411.495 327.277 407.524L360.268 380.106C365.045 376.135 364.804 368.728 359.778 365.076L349.23 357.412C338.973 349.959 329.685 341.257 321.581 331.506L302.313 308.322C298.936 304.259 295.772 300.027 292.826 295.652Z" fill="#057096"/>
<path d="M349.229 357.411C338.973 349.959 329.685 341.256 321.581 331.506L302.313 308.321C298.936 304.258 295.772 300.027 292.825 295.651L274.371 310.989L288.918 328.492C297.022 338.243 306.309 346.945 316.566 354.398L327.114 362.062C332.14 365.714 332.381 373.122 327.604 377.093L307.566 393.746L312.589 404.293C315.259 409.902 322.498 411.494 327.276 407.524L360.266 380.105C365.044 376.135 364.803 368.727 359.777 365.075L349.229 357.411Z" fill="#055E7F"/>
</svg>
