<svg width="92" height="91" viewBox="0 0 92 91" fill="none" xmlns="http://www.w3.org/2000/svg">
<g clip-path="url(#clip0)">
<path d="M79.1541 33.3798L71.1749 31.4479L69.243 23.4687L79.2941 13.4177C74.5917 12.1524 69.3641 13.3529 65.6736 17.0436C62.1588 20.5583 60.903 25.4673 61.883 29.9893L19.3929 72.4794C16.4242 75.4482 16.424 80.2613 19.3928 83.2301C22.3615 86.1989 27.1747 86.1989 30.1435 83.2299L72.6336 40.7398C77.1554 41.7201 82.0645 40.464 85.5793 36.9493C89.27 33.2586 90.4704 28.0309 89.2052 23.3288L79.1541 33.3798Z" fill="#D5DEE3"/>
<path d="M53.0011 39.6935L40.2356 26.928L32.007 35.1566L44.7726 47.9221L53.0011 39.6935Z" fill="#717F88"/>
<path d="M47.9535 44.7409L35.188 31.9753L32.007 35.1564L44.7725 47.9219L47.9535 44.7409Z" fill="#5D6970"/>
<path d="M51.9463 35.9886L87.3484 71.3908C90.3911 74.4335 90.347 79.4118 87.2159 82.3986C84.1762 85.2971 79.339 85.138 76.3685 82.1674L41.068 46.8669C40.5571 46.356 40.5571 45.5288 41.068 45.0181L41.4683 44.6177L49.6969 36.3892L50.0973 35.9888C50.6083 35.4777 51.4354 35.4777 51.9463 35.9886Z" fill="#B58058"/>
<path d="M79.4071 79.1292L44.1064 43.8285C43.5956 43.3176 43.5956 42.4903 44.1064 41.9795L41.4683 44.6176L41.068 45.018C40.5571 45.5288 40.5571 46.3561 41.068 46.8669L76.3687 82.1676C79.3392 85.1384 84.1764 85.2972 87.2161 82.3988C87.8058 81.8361 88.286 81.2027 88.6567 80.5248C85.701 82.1329 81.8982 81.6203 79.4071 79.1292Z" fill="#8E6047"/>
<path d="M62.8138 7.61784C55.2928 10.9565 46.8066 18.6812 43.6841 24.0843L40.7457 21.1459L40.2274 20.6258L34.4009 14.7938L34.4044 14.7903C36.5366 12.6562 38.0863 11.1067 38.2543 10.9404C44.585 4.60953 54.6101 2.79921 62.8138 7.61784Z" fill="#717F88"/>
<path d="M62.8139 7.61773C55.2929 10.9564 46.8067 18.6811 43.6842 24.0842L40.7458 21.1458L40.2275 20.6257C40.6064 19.8071 40.846 19.2889 40.8942 19.1851C44.662 11.0635 53.4519 5.91417 62.8139 7.61773Z" fill="#5D6970"/>
<path d="M18.2898 26.8855L31.7118 40.3075L31.3998 40.7756C29.5583 39.8586 26.9661 40.4194 25.0892 42.2962C23.2242 44.1612 22.6588 46.7342 23.5554 48.5729L23.3553 48.6643L9.93335 35.2423L10.0334 35.0244C11.869 35.8885 14.4126 35.3173 16.2614 33.4686C18.1411 31.5889 18.7021 28.9877 17.7762 27.1461L18.2898 26.8855Z" fill="#5D6970"/>
<path d="M10.0333 35.0246L9.93328 35.2425L23.3553 48.6645L23.5554 48.5731C23.726 48.9264 23.9529 49.2532 24.2326 49.5417L17.2478 56.5266L2.01953 41.2983L9.00439 34.3135C9.30896 34.6124 9.655 34.8494 10.0333 35.0246Z" fill="#717F88"/>
<path d="M20.1673 45.1586L20.0256 45.3349L23.9743 49.2836L24.1361 49.1539C24.122 49.3222 24.1532 49.4537 24.2324 49.5418L17.2476 56.5266L12.7676 52.0466L19.7524 45.0618C19.844 45.1475 19.9843 45.1789 20.1673 45.1586Z" fill="#5D6970"/>
<path d="M29.5128 13.8052C30.5913 12.7266 32.3399 12.7275 33.4173 13.8071L34.4013 14.793L40.7458 21.1461L43.6838 24.0842L44.7355 25.1359C45.8134 26.2137 45.8134 27.9607 44.7355 29.0385L43.5411 30.233L43.5397 30.2316L35.3111 38.4601L35.3125 38.4615L32.3362 41.4379C32.055 41.1654 31.7399 40.9449 31.4 40.7755L31.712 40.3073L18.2898 26.8857L17.7762 27.1463C17.6055 26.8047 17.3818 26.4899 17.1079 26.2102L29.5128 13.8052Z" fill="#717F88"/>
<path d="M66.5588 48.7052L73.0741 42.1895C74.3706 42.409 75.6767 42.462 76.9781 42.3474C77.7694 42.2779 78.332 41.5468 78.1873 40.7658C78.0602 40.0804 77.4295 39.6167 76.735 39.6772C75.4613 39.788 74.1814 39.7053 72.9158 39.4284C72.4701 39.3312 72.0046 39.4674 71.6817 39.79L64.6629 46.8089L55.8143 37.9603L62.8323 30.9424C63.1551 30.6195 63.2913 30.1545 63.1939 29.7084C62.2641 25.4525 63.5459 21.0758 66.6234 18C69.241 15.381 72.8703 14.0593 76.5047 14.3039L68.2839 22.5245C67.9534 22.8552 67.8189 23.3339 67.929 23.7883L69.8646 31.7705C69.983 32.2583 70.3639 32.6391 70.8514 32.7573L78.8336 34.6929C79.288 34.8027 79.7668 34.6684 80.0975 34.338L88.3179 26.1174C88.5618 29.7534 87.2402 33.3822 84.6217 36.0007C83.8547 36.7676 83.0052 37.4266 82.0865 37.9682C81.4947 38.3171 81.269 39.0614 81.5592 39.6841V39.6843C81.8951 40.4043 82.7786 40.6735 83.4624 40.2693C84.57 39.6148 85.5933 38.8203 86.5173 37.8966C90.3987 34.0149 91.9262 28.3008 90.5034 22.9845C90.3795 22.5219 90.0181 22.1606 89.5556 22.0364C89.0927 21.9127 88.5993 22.0445 88.2605 22.3832L78.7338 31.9101L72.2772 30.3444L70.7115 23.8878L80.2384 14.3611C80.5771 14.0223 80.7094 13.5287 80.5852 13.0662C80.4613 12.6035 80.0997 12.2423 79.6371 12.1182C74.3198 10.6949 68.607 12.2223 64.7272 16.1041C61.1771 19.6522 59.6001 24.6309 60.4328 29.5498L53.9179 36.0644L52.8935 35.04C52.0512 34.1981 50.7793 34.0434 49.7784 34.5745L45.4361 30.2321L45.6162 30.052C46.3429 29.3253 46.8142 28.3664 46.8758 27.3403C46.9469 26.1513 46.5165 25.0214 45.6826 24.1873L45.3822 23.8866C48.6487 18.9146 56.2845 11.9818 63.3575 8.84277C63.9084 8.59819 64.2399 8.00881 64.1348 7.38767C64.0677 6.99081 63.812 6.64847 63.4647 6.44519C55.0648 1.52881 44.3124 2.98514 37.3049 9.99223L34.4014 12.8957L34.3628 12.8569C33.5946 12.0879 32.5523 11.6557 31.4651 11.6557H31.4632C30.3681 11.6557 29.3384 12.0824 28.5639 12.8566L16.1599 25.2619C15.6381 25.7837 15.6475 26.6281 16.1605 27.1584C16.3295 27.3332 16.4698 27.5309 16.5785 27.7481C17.2584 29.1003 16.7266 31.1074 15.3134 32.5205C13.9092 33.9246 11.9727 34.4559 10.5965 33.808C10.3595 33.6982 10.1442 33.5507 9.95644 33.3695C9.42353 32.8552 8.58005 32.8415 8.05631 33.3652L1.07163 40.3501C0.548065 40.8738 0.548065 41.7224 1.07163 42.2458L16.2775 57.4516C16.4096 57.5838 16.5626 57.6964 16.7359 57.7663C17.2566 57.9762 17.824 57.8455 18.1954 57.4739L25.1803 50.489C25.698 49.9713 25.7045 49.1336 25.1949 48.6081C25.0181 48.4256 24.8725 48.2176 24.7603 47.9852C24.0917 46.6139 24.6168 44.6642 26.0372 43.2439C27.4457 41.8352 29.4503 41.3017 30.8023 41.9755C31.0234 42.0856 31.2257 42.2287 31.4035 42.4009C31.9292 42.9102 32.7663 42.9033 33.2839 42.3859L35.3125 40.3573L39.6549 44.6997C39.1237 45.7006 39.2785 46.9727 40.12 47.8146C40.12 47.8146 40.12 47.8146 40.12 47.8147L41.1452 48.8398L26.6761 63.3075C26.1526 63.8309 26.1526 64.6795 26.676 65.2029L26.6763 65.2032C27.1997 65.7268 28.0485 65.7268 28.5717 65.2032L42.1507 51.624L43.0404 50.735L44.248 51.9425L34.2401 61.9505C32.9762 63.2175 32.9762 65.2791 34.2417 66.548L36.0769 68.3815C36.7106 69.0151 37.543 69.3317 38.375 69.3317C39.2073 69.3317 40.0395 69.015 40.673 68.3815L50.68 58.3747L51.8878 59.5826L51.8854 59.585L29.1923 82.2801C26.746 84.7251 22.7721 84.729 20.3332 82.2891C19.1494 81.1059 18.4986 79.534 18.5007 77.8622C18.5028 76.1908 19.1569 74.6167 20.3419 73.4312L24.1487 69.6259C24.6722 69.1025 24.6724 68.2537 24.1489 67.7303L24.1485 67.73C23.6251 67.2066 22.7767 67.2064 22.2533 67.7298L18.4465 71.5352C16.7557 73.2271 15.8227 75.4727 15.8199 77.8588C15.8169 80.2479 16.7468 82.4948 18.4375 84.1846C20.1776 85.9256 22.4645 86.7961 24.7531 86.7961C27.0456 86.7959 29.3402 85.9224 31.0878 84.1758L53.7802 61.4815L53.7836 61.4781L75.4207 83.1153C77.2151 84.9095 79.5919 85.8126 81.9568 85.8126C84.1981 85.8126 86.4289 85.0011 88.1413 83.3683C89.9157 81.6755 90.9087 79.3918 90.9376 76.937C90.9666 74.4814 90.0287 72.175 88.2965 70.4429L66.5588 48.7052ZM39.2013 11.8885C44.718 6.37213 52.8714 4.77287 59.7975 7.61477C53.1236 11.237 46.6859 17.2787 43.453 21.9554L36.2971 14.7927L39.2013 11.8885ZM17.2476 54.6307L3.9153 41.2982L9.00426 36.2092L22.3366 49.5416L17.2476 54.6307ZM24.1414 41.3483C22.9888 42.501 22.2374 43.9231 21.944 45.3573L13.2141 36.6275C14.6373 36.3347 16.0452 35.5807 17.2095 34.4166C18.4813 33.1446 19.2646 31.5528 19.4855 29.9768L28.5828 39.0741C27.0051 39.2945 25.4121 40.0776 24.1414 41.3483ZM32.5892 39.2892L19.2568 25.9567L30.4605 14.7528C30.7286 14.4849 31.0848 14.3372 31.4639 14.3372C31.4641 14.3372 31.4644 14.3372 31.4646 14.3372C31.844 14.3374 32.2004 14.4855 32.4683 14.7539L33.4522 15.7399C33.4524 15.7399 33.4524 15.7401 33.4526 15.7403L43.7876 26.0841C44.0556 26.3519 44.2033 26.7084 44.2033 27.0873C44.2033 27.4663 44.0556 27.8227 43.7876 28.0906L32.5892 39.2892ZM43.5411 32.1288L47.8012 36.3889L44.6348 39.5553L41.4683 42.7217L37.2082 38.4614L43.5411 32.1288ZM38.7775 66.4857C38.5553 66.7077 38.1941 66.7074 37.9721 66.4854L36.1382 64.6532C35.9156 64.4301 35.9156 64.0673 36.1369 63.8453L46.1439 53.8386L48.7841 56.4788L38.7775 66.4857ZM86.2911 81.4285C83.8169 83.7874 79.7908 83.6941 77.3166 81.2195L42.0392 45.9421L51.0219 36.9596L86.4006 72.3386C87.6182 73.556 88.2773 75.1777 88.257 76.9054C88.2367 78.6323 87.5385 80.2386 86.2911 81.4285Z" fill="black"/>
</g>
<defs>
<clipPath id="clip0">
<rect width="90.3477" height="90.3477" fill="white" transform="translate(0.678955)"/>
</clipPath>
</defs>
</svg>
